<svg width="579" height="678" viewBox="0 0 579 678" fill="none" xmlns="http://www.w3.org/2000/svg">
<path d="M56.5107 545.859C-40.5889 406.865 -6.62686 215.473 132.367 118.373L946.404 -450.304L1298.03 53.0382L483.996 621.715C345.002 718.815 153.61 684.853 56.5107 545.859Z" fill="#0C151D"/>
<path d="M56.5107 545.859C-40.5889 406.865 -6.62686 215.473 132.367 118.373L946.404 -450.304L1298.03 53.0382L483.996 621.715C345.002 718.815 153.61 684.853 56.5107 545.859Z" stroke="black"/>
<path d="M56.5107 545.859C-40.5889 406.865 -6.62686 215.473 132.367 118.373L946.404 -450.304L1298.03 53.0382L483.996 621.715C345.002 718.815 153.61 684.853 56.5107 545.859Z" stroke="black" stroke-opacity="0.2"/>
<path d="M56.5107 545.859C-40.5889 406.865 -6.62686 215.473 132.367 118.373L946.404 -450.304L1298.03 53.0382L483.996 621.715C345.002 718.815 153.61 684.853 56.5107 545.859Z" stroke="black" stroke-opacity="0.2"/>
<path d="M56.5107 545.859C-40.5889 406.865 -6.62686 215.473 132.367 118.373L946.404 -450.304L1298.03 53.0382L483.996 621.715C345.002 718.815 153.61 684.853 56.5107 545.859Z" stroke="black" stroke-opacity="0.2"/>
</svg>
