<svg width="22" height="20" viewBox="0 0 22 20" fill="none" xmlns="http://www.w3.org/2000/svg">
<g id="BrushFill" clip-path="url(#clip0_21_42)">
<path id="Vector" d="M20.9805 0.149883C21.0848 0.237461 21.1575 0.355882 21.1877 0.487456C21.218 0.61903 21.2041 0.756694 21.1482 0.879883C19.2037 5.16738 15.12 11.0924 12.1307 14.1799C11.2929 15.0436 10.2595 15.7006 9.11473 16.0974C9.09185 16.3811 9.03847 16.7699 8.91137 17.1824C8.65591 18.0061 8.06364 19.0311 6.74056 19.3574C5.45921 19.6575 4.13129 19.7135 2.82853 19.5224C2.58628 19.4847 2.34744 19.4283 2.11424 19.3536C1.8985 19.2891 1.69741 19.1842 1.52197 19.0449C1.40628 18.9481 1.31713 18.8243 1.2627 18.6849C1.19523 18.5059 1.19704 18.3088 1.26778 18.1311C1.38852 17.8249 1.66941 17.6561 1.8537 17.5661C2.35446 17.3199 2.64805 16.9999 2.95562 16.5336C3.07637 16.3536 3.18948 16.1624 3.32039 15.9436L3.46909 15.6961C3.66101 15.3774 3.88343 15.0211 4.16304 14.6361C4.83411 13.7124 5.68947 13.4799 6.38215 13.5161C6.54229 13.5249 6.69099 13.5474 6.82445 13.5761C6.90324 13.3611 7.00492 13.1011 7.12694 12.8161C7.45866 12.0424 7.96323 11.0424 8.63557 10.2299C11.4012 6.89238 16.4901 2.47238 20.223 0.0998833C20.3379 0.0269328 20.4737 -0.00760472 20.6101 0.00140332C20.7466 0.0104113 20.8765 0.0624841 20.9805 0.149883Z" fill="white"/>
</g>
<defs>
<clipPath id="clip0_21_42">
<rect width="20.3355" height="20" fill="white" transform="translate(0.867432)"/>
</clipPath>
</defs>
</svg>
