<svg width="22" height="20" viewBox="0 0 22 20" fill="none" xmlns="http://www.w3.org/2000/svg">
<g id="ClockFill" clip-path="url(#clip0_21_34)">
<path id="Vector" d="M21.2732 10C21.2732 12.6522 20.202 15.1957 18.2951 17.0711C16.3883 18.9464 13.8021 20 11.1055 20C8.40883 20 5.82262 18.9464 3.9158 17.0711C2.00898 15.1957 0.937744 12.6522 0.937744 10C0.937744 7.34784 2.00898 4.8043 3.9158 2.92893C5.82262 1.05357 8.40883 0 11.1055 0C13.8021 0 16.3883 1.05357 18.2951 2.92893C20.202 4.8043 21.2732 7.34784 21.2732 10ZM11.1055 4.375C11.1055 4.20924 11.0385 4.05027 10.9193 3.93306C10.8002 3.81585 10.6385 3.75 10.47 3.75C10.3015 3.75 10.1398 3.81585 10.0206 3.93306C9.90146 4.05027 9.83451 4.20924 9.83451 4.375V11.25C9.83455 11.3602 9.86419 11.4684 9.92043 11.5636C9.97668 11.6589 10.0575 11.7379 10.1548 11.7925L14.6032 14.2925C14.7492 14.3701 14.9202 14.3885 15.0798 14.3437C15.2393 14.2989 15.3747 14.1944 15.4571 14.0527C15.5394 13.9111 15.5621 13.7433 15.5203 13.5854C15.4786 13.4274 15.3757 13.2918 15.2336 13.2075L11.1055 10.8875V4.375Z" fill="white"/>
</g>
<defs>
<clipPath id="clip0_21_34">
<rect width="20.3355" height="20" fill="white" transform="translate(0.937744)"/>
</clipPath>
</defs>
</svg>
