<svg width="22" height="20" viewBox="0 0 22 20" fill="none" xmlns="http://www.w3.org/2000/svg">
<g id="MenuButtonWideFill" clip-path="url(#clip0_21_4)">
<path id="Vector" d="M2.87935 0C2.37373 0 1.88882 0.197544 1.53129 0.549175C1.17376 0.900805 0.9729 1.37772 0.9729 1.875L0.9729 4.375C0.9729 4.87228 1.17376 5.34919 1.53129 5.70083C1.88882 6.05246 2.37373 6.25 2.87935 6.25H19.4019C19.9075 6.25 20.3924 6.05246 20.75 5.70083C21.1075 5.34919 21.3084 4.87228 21.3084 4.375V1.875C21.3084 1.37772 21.1075 0.900805 20.75 0.549175C20.3924 0.197544 19.9075 0 19.4019 0L2.87935 0ZM4.15032 2.5H7.96322C8.13176 2.5 8.29339 2.56585 8.41257 2.68306C8.53175 2.80027 8.5987 2.95924 8.5987 3.125C8.5987 3.29076 8.53175 3.44973 8.41257 3.56694C8.29339 3.68415 8.13176 3.75 7.96322 3.75H4.15032C3.98178 3.75 3.82014 3.68415 3.70096 3.56694C3.58179 3.44973 3.51483 3.29076 3.51483 3.125C3.51483 2.95924 3.58179 2.80027 3.70096 2.68306C3.82014 2.56585 3.98178 2.5 4.15032 2.5ZM16.7672 3.03375C16.7226 2.99004 16.6923 2.93431 16.68 2.87362C16.6677 2.81293 16.674 2.75001 16.6981 2.69284C16.7222 2.63566 16.763 2.58682 16.8153 2.55249C16.8677 2.51816 16.9292 2.49989 16.9922 2.5H17.9988C18.0617 2.49989 18.1232 2.51816 18.1756 2.55249C18.2279 2.58682 18.2688 2.63566 18.2929 2.69284C18.317 2.75001 18.3232 2.81293 18.3109 2.87362C18.2986 2.93431 18.2683 2.99004 18.2237 3.03375L17.7204 3.52875C17.6909 3.55785 17.6558 3.58094 17.6172 3.5967C17.5786 3.61245 17.5373 3.62056 17.4955 3.62056C17.4537 3.62056 17.4123 3.61245 17.3737 3.5967C17.3351 3.58094 17.3 3.55785 17.2705 3.52875L16.7672 3.03375ZM0.9729 10C0.9729 9.33696 1.24071 8.70107 1.71742 8.23223C2.19412 7.76339 2.84067 7.5 3.51483 7.5H18.7664C19.4406 7.5 20.0871 7.76339 20.5638 8.23223C21.0406 8.70107 21.3084 9.33696 21.3084 10V16.25C21.3084 16.913 21.0406 17.5489 20.5638 18.0178C20.0871 18.4866 19.4406 18.75 18.7664 18.75H3.51483C2.84067 18.75 2.19412 18.4866 1.71742 18.0178C1.24071 17.5489 0.9729 16.913 0.9729 16.25V10ZM2.24387 13.75V16.25C2.24387 16.5815 2.37777 16.8995 2.61612 17.1339C2.85448 17.3683 3.17775 17.5 3.51483 17.5H18.7664C19.1035 17.5 19.4268 17.3683 19.6651 17.1339C19.9035 16.8995 20.0374 16.5815 20.0374 16.25V13.75H2.24387ZM20.0374 12.5V10C20.0374 9.66848 19.9035 9.35054 19.6651 9.11612C19.4268 8.8817 19.1035 8.75 18.7664 8.75H3.51483C3.17775 8.75 2.85448 8.8817 2.61612 9.11612C2.37777 9.35054 2.24387 9.66848 2.24387 10V12.5H20.0374ZM3.51483 10.625C3.51483 10.4592 3.58179 10.3003 3.70096 10.1831C3.82014 10.0658 3.98178 10 4.15032 10H15.589C15.7576 10 15.9192 10.0658 16.0384 10.1831C16.1575 10.3003 16.2245 10.4592 16.2245 10.625C16.2245 10.7908 16.1575 10.9497 16.0384 11.0669C15.9192 11.1842 15.7576 11.25 15.589 11.25H4.15032C3.98178 11.25 3.82014 11.1842 3.70096 11.0669C3.58179 10.9497 3.51483 10.7908 3.51483 10.625ZM3.51483 15.625C3.51483 15.4592 3.58179 15.3003 3.70096 15.1831C3.82014 15.0658 3.98178 15 4.15032 15H11.7761C11.9447 15 12.1063 15.0658 12.2255 15.1831C12.3446 15.3003 12.4116 15.4592 12.4116 15.625C12.4116 15.7908 12.3446 15.9497 12.2255 16.0669C12.1063 16.1842 11.9447 16.25 11.7761 16.25H4.15032C3.98178 16.25 3.82014 16.1842 3.70096 16.0669C3.58179 15.9497 3.51483 15.7908 3.51483 15.625Z" fill="white"/>
</g>
<defs>
<clipPath id="clip0_21_4">
<rect width="20.3355" height="20" fill="white" transform="translate(0.9729)"/>
</clipPath>
</defs>
</svg>
